<?xml version="1.0" encoding="utf-8"?>
<!-- Generator: Adobe Illustrator 20.1.0, SVG Export Plug-In . SVG Version: 6.00 Build 0)  -->
<svg version="1.1" id="Camada_1" xmlns="http://www.w3.org/2000/svg" xmlns:xlink="http://www.w3.org/1999/xlink" x="0px" y="0px"
	 viewBox="0 0 218.1 55" style="enable-background:new 0 0 218.1 55;" xml:space="preserve">
<style type="text/css">
	.st0{fill:#FFFFFF;}
</style>
<g id="Page-1_1_">
	<g id="Artboard_1_" transform="translate(-111.000000, -104.000000)">
		<g id="Group-3_4_" transform="translate(111.000000, 104.000000)">
			<path id="Panela_1_" class="st0" d="M97.5,54.1c-0.5,0-0.8-0.3-0.8-0.9V33c0-0.5,0.3-0.8,0.8-0.8h9.9c5.9,0,9,3.8,9,7.7
				c0,4.9-3.4,8-10.9,8c-1.1,0-2.4-0.1-3.6-0.2v5.5c0,0.5-0.3,0.9-0.8,0.9H97.5z M104.8,43.4c4.7,0,6.4-1.1,6.4-3.5
				c0-1.5-1.3-3.1-3.9-3.1h-5.6v6.4C102.9,43.3,103.9,43.4,104.8,43.4z M124,54.4c-3.5,0-7-2.8-7-8c0-5.3,3.9-8.4,8.8-8.4
				c2.5,0,4.8,0.9,6.1,1.6c0.9,0.5,1.2,1.1,1.2,2.2v11.3c0,0.5-0.3,0.9-0.8,0.9h-2.8c-0.5,0-0.9-0.3-0.9-0.9V52
				C127.9,53.4,126.1,54.4,124,54.4z M125.2,50.2c2.7,0,3.9-2.9,3.3-6.9c-0.7-0.4-1.6-0.8-3-0.8c-1.9,0-3.6,1.6-3.6,4.1
				C121.9,48.8,123.5,50.2,125.2,50.2z M136.3,54.1h3.2c0.5,0,0.8-0.3,0.8-0.9v-10c0.7-0.4,1.7-0.8,2.8-0.8c1.7,0,3.2,1.8,3.2,4.3
				v6.5c0,0.5,0.3,0.9,0.9,0.9h3.1c0.5,0,0.8-0.3,0.8-0.9v-6.8c0-5.3-3.7-8.4-8.5-8.4c-2.6,0-4.8,0.9-6.1,1.7
				c-0.8,0.5-1.2,1.1-1.2,2.2v11.2C135.4,53.8,135.8,54.1,136.3,54.1z M166.1,50.1l0.9,2.2c0.1,0.2,0.1,0.7-0.2,0.8
				c-1.5,0.8-3.5,1.4-5.4,1.4c-5.2,0-8.3-3.3-8.3-7.9c0-4.8,2.9-8.5,8.3-8.5c3.9,0,6.4,2.5,6.4,5.2c0,3.7-2.8,5.3-6.3,5.3
				c-1.3,0-2.7-0.4-3.8-0.9c0.5,1.5,2.1,2.7,4.1,2.7c1.3,0,2.1-0.2,3.5-0.8C165.7,49.5,166,49.6,166.1,50.1z M161.6,42.1
				c-1.4,0-3.2,0.8-3.8,2.8c1,0.4,2,0.6,3.3,0.6c1.6,0,2.7-0.7,2.7-1.7C163.7,43.1,163,42.1,161.6,42.1z M170.5,54.1h3.2
				c0.5,0,0.8-0.3,0.8-0.9V31.7c0-0.5-0.3-0.8-0.8-0.8h-3.2c-0.5,0-0.8,0.3-0.8,0.8v21.5C169.7,53.8,170.1,54.1,170.5,54.1z
				 M183.5,54.4c-3.5,0-7-2.8-7-8c0-5.3,3.9-8.4,8.8-8.4c2.5,0,4.8,0.9,6.1,1.6c0.9,0.5,1.2,1.1,1.2,2.2v11.3c0,0.5-0.3,0.9-0.8,0.9
				H189c-0.5,0-0.9-0.3-0.9-0.9V52C187.3,53.4,185.6,54.4,183.5,54.4z M184.7,50.2c2.7,0,3.9-2.9,3.3-6.9c-0.7-0.4-1.6-0.8-3-0.8
				c-1.9,0-3.6,1.6-3.6,4.1C181.4,48.8,183,50.2,184.7,50.2z"/>
			<g id="Group_4_" transform="translate(190.000000, 0.000000)">
				<path id="Shape_9_" class="st0" d="M20.4,12.6c-0.5-1.4-1.8-2.4-3.2-2.6c-1-0.1-2,0.2-2.7,0.7c-0.8-0.5-1.8-0.8-2.8-0.7
					c-1.4,0.2-2.7,1.1-3.2,2.6s-0.2,3,0.9,4.1l5,4.9l5-4.9C20.6,15.7,20.9,14.1,20.4,12.6z M17.9,15.1l-3.4,3.3l-3.4-3.3
					c-0.5-0.5-0.5-1.2-0.4-1.7c0.1-0.2,0.4-0.9,1.2-1c0.1,0,0.2,0,0.2,0c0.6,0,1.1,0.2,1.5,0.7l0.8,1l0.8-0.9
					c0.5-0.5,1.1-0.8,1.8-0.7c0.8,0.1,1.1,0.7,1.2,1C18.4,13.8,18.4,14.5,17.9,15.1z"/>
				<path id="Shape_8_" class="st0" d="M6.6,54.1h10.3c1.9,0,3.5-1.9,3.5-3.9c0-1.9-1.6-3.6-3.5-3.6h-5.8c-0.7,0-1.2-0.5-1.2-1.2
					s0.5-1.2,1.2-1.2H12c1.9,0,3.5-1.6,3.5-3.6v-1.2h1c0.8,0,1.6-0.5,2-1.3s0.2-1.7-0.5-2.3l-2.2-2.3c2.6-3,11.2-13.4,11.2-19.4
					c0-7.1-5.7-13-12.7-13S1.6,6.9,1.6,14.1c0,6,8.6,16.4,11.2,19.4l-2,2.2c-0.6,0.6-0.7,1.6-0.4,2.3s1.1,1.3,2,1.3h0.8v1.2
					c0,0.7-0.5,1.2-1.2,1.2h-0.9c-1.9,0-3.5,1.6-3.5,3.6s1.6,3.6,3.5,3.6h5.8c0.7,0,1.2,0.5,1.2,1.3c0,0.7-0.5,1.5-1.2,1.5H6.6
					C5.6,51.7,6.2,54.1,6.6,54.1z M14.3,3.4c5.8,0,10.4,4.8,10.4,10.6c0,4.6-6.9,13.6-10.4,17.7C10.7,27.6,3.9,18.6,3.9,14
					C3.8,8.1,8.5,3.4,14.3,3.4z M14.3,35.1L14.3,35.1L14.3,35.1l1.8,1.9h-3.4L14.3,35.1z"/>
			</g>
			<path id="Cha_1_" class="st0" d="M12.3,53.8c2.3,0,5.1-0.7,7-1.9c0.3-0.3,0.4-0.8,0.3-1.1l-1.4-2.4c-0.3-0.5-0.8-0.5-1.2-0.4
				c-1.4,0.8-2.8,1.1-3.9,1.1c-3.7,0-6.9-2.4-6.9-6.9c0-4.1,3.1-6.7,6.4-6.7c1.6,0,3,0.4,4.3,1c0.4,0.2,0.9,0.2,1.2-0.3l1.4-2.6
				c0.2-0.4,0.2-0.8-0.3-1.1c-1.9-1-4.5-1.8-7-1.8C5.7,30.7,1.1,35.8,1.1,42C1.1,48.5,5.8,53.8,12.3,53.8z M22.4,53.4h3.2
				c0.5,0,0.8-0.3,0.8-0.9v-9c1-1.4,2.1-1.9,3.5-1.9c1.7,0,2.8,1.3,2.8,3.8v7.1c0,0.5,0.3,0.9,0.8,0.9h3.3c0.4,0,0.8-0.4,0.8-0.9
				v-6.9c0-5.1-2.8-8.2-7-8.2c-1.6,0-3,0.5-4.2,1.6v-6.7c0-0.5-0.3-0.8-0.8-0.8h-3.2c-0.5,0-0.8,0.3-0.8,0.8v20.2
				C21.6,53,21.9,53.4,22.4,53.4z M46.6,53.7c-3.4,0-7-2.8-7-8c0-5.3,3.9-8.4,8.8-8.4c2.5,0,4.8,0.9,6.1,1.6
				c0.9,0.5,1.2,1.1,1.2,2.2v11.3c0,0.5-0.3,0.9-0.8,0.9h-2.7c-0.5,0-0.9-0.3-0.9-0.9v-1.1C50.4,52.7,48.7,53.7,46.6,53.7z
				 M47.7,49.5c2.7,0,3.9-2.9,3.3-6.9c-0.7-0.4-1.6-0.8-2.9-0.8c-1.9,0-3.6,1.6-3.6,4.1C44.5,48.1,46.1,49.5,47.7,49.5z"/>
			<path id="de_1_" class="st0" d="M66.6,54.4c-4.1,0-6.9-3.7-6.9-8.1c0-5.7,3.5-8.2,7-8.2c1.7,0,3.3,0.5,4.5,1.1v-7.5
				c0-0.5,0.3-0.8,0.8-0.8h3.2c0.5,0,0.8,0.3,0.8,0.8v21.5c0,0.5-0.3,0.9-0.8,0.9h-2.9c-0.5,0-0.8-0.3-0.8-0.9V52
				C70.3,53.8,68.2,54.4,66.6,54.4z M67.4,50.2c3,0,4.5-3.1,3.7-6.8c-0.9-0.6-2.4-0.9-3.4-0.9c-1.9,0-3.4,1.4-3.4,3.9
				C64.4,48.7,65.7,50.2,67.4,50.2z M90.9,50.1l0.9,2.2c0.1,0.2,0.1,0.7-0.2,0.8c-1.5,0.8-3.4,1.4-5.4,1.4c-5.2,0-8.3-3.3-8.3-7.9
				c0-4.8,2.9-8.5,8.3-8.5c3.9,0,6.4,2.5,6.4,5.2c0,3.7-2.8,5.3-6.3,5.3c-1.3,0-2.6-0.4-3.8-0.9c0.5,1.5,2.1,2.7,4.1,2.7
				c1.3,0,2.1-0.2,3.5-0.8C90.5,49.5,90.8,49.6,90.9,50.1z M86.4,42.1c-1.4,0-3.2,0.8-3.8,2.8c1,0.4,2,0.6,3.2,0.6
				c1.6,0,2.7-0.7,2.7-1.7C88.5,43.1,87.8,42.1,86.4,42.1z"/>
			<path id="l_1_" class="st0" d="M44.1,31.6l0.2,2.7c0,0.4,0.2,0.7,0.4,0.7l7.9-1c0.2,0,0.3-0.3,0.3-0.7l-0.2-2.7
				c0-0.4-0.2-0.7-0.3-0.7l-7.9,1C44.2,30.9,44.1,31.2,44.1,31.6z"/>
		</g>
	</g>
</g>
</svg>
