<?xml version="1.0" encoding="UTF-8"?>
<svg width="208px" height="81px" viewBox="0 0 208 81" version="1.1" xmlns="http://www.w3.org/2000/svg" xmlns:xlink="http://www.w3.org/1999/xlink">
    <!-- Generator: Sketch 45 (43475) - http://www.bohemiancoding.com/sketch -->
    <title>Group 3</title>
    <desc>Created with Sketch.</desc>
    <defs>
        <linearGradient x1="-14.6814432%" y1="-6.02992421%" x2="86.540993%" y2="30.7737612%" id="linearGradient-1">
            <stop stop-color="#31D1F8" offset="0%"></stop>
            <stop stop-color="#8142F9" offset="100%"></stop>
        </linearGradient>
    </defs>
    <g id="Page-1" stroke="none" stroke-width="1" fill="none" fill-rule="evenodd">
        <g id="Artboard" transform="translate(-138.000000, -95.000000)">
            <g id="Group-3" transform="translate(138.000000, 95.000000)">
                <path d="M105.833595,80.2791306 C105.335926,80.2791306 105.004147,79.9473515 105.004147,79.416505 L105.004147,59.211158 C105.004147,58.7134893 105.335926,58.3817102 105.833595,58.3817102 L115.75379,58.3817102 C121.659458,58.3817102 124.711826,62.1639919 124.711826,66.0789853 C124.711826,71.0224938 121.327679,74.0748615 113.796293,74.0748615 C112.668244,74.0748615 111.440662,74.0085057 110.146723,73.8757941 L110.146723,79.416505 C110.146723,79.9473515 109.814944,80.2791306 109.317275,80.2791306 L105.833595,80.2791306 Z M113.199091,69.5294879 C117.877176,69.5294879 119.635605,68.401439 119.635605,66.0789853 C119.635605,64.5528014 118.374845,63.0266176 115.75379,63.0266176 L110.146723,63.0266176 L110.146723,69.3967762 C111.274772,69.49631 112.303287,69.5294879 113.199091,69.5294879 Z M132.378688,80.6109097 C128.928185,80.6109097 125.378149,77.8239653 125.378149,72.6482114 C125.378149,67.3397458 129.259964,64.2873782 134.170295,64.2873782 C136.691816,64.2873782 138.981092,65.1831817 140.241852,65.9130957 C141.104478,66.4107644 141.436257,67.0079668 141.436257,68.1028378 L141.436257,79.416505 C141.436257,79.9473515 141.104478,80.2791306 140.606809,80.2791306 L137.853043,80.2791306 C137.355374,80.2791306 136.990417,79.9473515 136.990417,79.416505 L136.990417,78.3216339 C136.227325,79.6155724 134.502074,80.6109097 132.378688,80.6109097 Z M133.539914,76.3973152 C136.227325,76.3973152 137.42173,73.544015 136.824527,69.4631321 C136.160969,69.0318192 135.19881,68.6336843 133.871693,68.6336843 C132.013731,68.6336843 130.255301,70.1930461 130.255301,72.7145672 C130.255301,75.003843 131.847841,76.3973152 133.539914,76.3973152 Z M144.624101,80.2791306 L147.842358,80.2791306 C148.340027,80.2791306 148.671806,79.9473515 148.671806,79.416505 L148.671806,69.4631321 C149.368542,69.0318192 150.397057,68.6336843 151.425572,68.6336843 C153.117646,68.6336843 154.610652,70.3921135 154.610652,72.9136347 L154.610652,79.416505 C154.610652,79.9473515 154.942431,80.2791306 155.473277,80.2791306 L158.691535,80.2791306 C159.189203,80.2791306 159.520982,79.9473515 159.520982,79.416505 L159.520982,72.6482114 C159.520982,67.3397458 155.771879,64.2873782 151.060615,64.2873782 C148.505916,64.2873782 146.216641,65.2163596 144.95588,65.9794516 C144.126432,66.4771202 143.794653,67.0743226 143.794653,68.1691936 L143.794653,79.416505 C143.794653,79.9473515 144.126432,80.2791306 144.624101,80.2791306 Z M174.486985,76.2314256 L175.415966,78.4211677 C175.5155,78.653413 175.5155,79.0847259 175.183721,79.2506154 C173.690715,80.0137073 171.733218,80.6109097 169.742543,80.6109097 C164.533612,80.6109097 161.414888,77.3594746 161.414888,72.7145672 C161.414888,67.9369482 164.334544,64.2542003 169.742543,64.2542003 C173.690715,64.2542003 176.179058,66.7093656 176.179058,69.49631 C176.179058,73.179058 173.392113,74.7715976 169.842077,74.7715976 C168.548139,74.7715976 167.187844,74.4066406 166.026618,73.8426161 C166.557464,75.3688 168.083648,76.5632047 170.173856,76.5632047 C171.500973,76.5632047 172.230887,76.3641373 173.657537,75.8001128 C174.055672,75.6342233 174.321095,75.8001128 174.486985,76.2314256 Z M169.908433,68.3019052 C168.481783,68.3019052 166.690176,69.0981751 166.092973,71.1220276 C167.055133,71.5201625 168.05047,71.7524078 169.344409,71.7524078 C170.970126,71.7524078 172.031819,71.0224938 172.031819,70.0271565 C172.031819,69.2640646 171.368261,68.3019052 169.908433,68.3019052 Z M178.902411,80.2791306 L182.120669,80.2791306 C182.618337,80.2791306 182.950116,79.9473515 182.950116,79.416505 L182.950116,57.8840416 C182.950116,57.3863729 182.618337,57.0545939 182.120669,57.0545939 L178.902411,57.0545939 C178.404743,57.0545939 178.072964,57.3863729 178.072964,57.8840416 L178.072964,79.416505 C178.072964,79.9473515 178.404743,80.2791306 178.902411,80.2791306 Z M191.844561,80.6109097 C188.394058,80.6109097 184.844022,77.8239653 184.844022,72.6482114 C184.844022,67.3397458 188.725837,64.2873782 193.636168,64.2873782 C196.157689,64.2873782 198.446965,65.1831817 199.707725,65.9130957 C200.570351,66.4107644 200.90213,67.0079668 200.90213,68.1028378 L200.90213,79.416505 C200.90213,79.9473515 200.570351,80.2791306 200.072682,80.2791306 L197.318916,80.2791306 C196.821247,80.2791306 196.45629,79.9473515 196.45629,79.416505 L196.45629,78.3216339 C195.693198,79.6155724 193.967947,80.6109097 191.844561,80.6109097 Z M193.005788,76.3973152 C195.693198,76.3973152 196.887603,73.544015 196.290401,69.4631321 C195.626843,69.0318192 194.664683,68.6336843 193.337567,68.6336843 C191.479604,68.6336843 189.721175,70.1930461 189.721175,72.7145672 C189.721175,75.003843 191.313714,76.3973152 193.005788,76.3973152 Z" id="Panela" fill="#8142F9"></path>
                <path d="M205.070309,13.9053871 C204.536657,12.5092651 203.316881,11.5009547 201.868397,11.34583 C200.877329,11.2682677 199.886261,11.5009547 199.123901,12.0438911 C198.285305,11.5009547 197.294236,11.2682677 196.303168,11.34583 C194.854684,11.5009547 193.634908,12.4317027 193.101256,13.9053871 C192.567604,15.3790715 192.948784,16.9303182 194.016088,18.0161909 L198.971429,22.9026181 L204.003005,18.0161909 C205.222781,17.0078805 205.603961,15.3790715 205.070309,13.9053871 Z" id="Path" fill="#FFFFFF"></path>
                <g id="Group" transform="translate(182.000000, 0.000000)" fill-rule="nonzero">
                    <path d="M18.9065294,11.7119127 C18.3728774,10.3157907 17.1531013,9.30748029 15.7046172,9.15235562 C14.7135491,9.07479328 13.722481,9.30748029 12.960121,9.85041664 C12.1215249,9.30748029 11.1304568,9.07479328 10.1393888,9.15235562 C8.69090465,9.30748029 7.47112856,10.2382283 6.93747652,11.7119127 C6.40382448,13.1855971 6.7850045,14.7368438 7.85230858,15.8227165 L12.807649,20.7091436 L17.8392253,15.8227165 C19.0590014,14.8144061 19.4401814,13.1855971 18.9065294,11.7119127 Z M16.3907412,14.1939074 L12.960121,17.5290879 L9.60573671,14.1939074 C9.07208467,13.6509711 9.07208467,12.9529101 9.22455669,12.4875361 C9.30079269,12.254849 9.60573671,11.556788 10.4443328,11.4792257 C10.5205688,11.4792257 10.5968048,11.4792257 10.5968048,11.4792257 C11.2066928,11.4792257 11.7403449,11.7119127 12.1215249,12.1772867 L12.960121,13.1855971 L13.798717,12.254849 C14.2561331,11.789475 14.8660211,11.4792257 15.5521452,11.556788 C16.3907412,11.6343504 16.6956852,12.254849 16.7719212,12.5650984 C16.9243933,12.9529101 16.9243933,13.6509711 16.3907412,14.1939074 Z" id="Shape" fill="#F950B7"></path>
                    <path d="M15.4759092,55.6121947 L9.68197272,55.6121947 C8.99584867,55.6121947 8.46219663,55.0692584 8.46219663,54.3711974 C8.46219663,53.9833857 8.61466864,53.6731363 8.84337666,53.362887 C9.07208467,53.1302 9.3770287,52.9750753 9.75820873,52.9750753 L15.5521452,52.9750753 C17.4580453,52.9750753 19.0590014,51.3462663 19.0590014,49.3296455 C19.0590014,47.3905871 17.4580453,45.7617781 15.5521452,45.7617781 L9.75820873,45.7617781 C9.07208467,45.7617781 8.53843263,45.2188417 8.53843263,44.5207807 C8.53843263,43.8227197 9.07208467,43.2797833 9.75820873,43.2797833 L10.6730408,43.2797833 C12.5789409,43.2797833 14.1798971,41.6509743 14.1798971,39.7119159 L14.1798971,38.4709185 L15.1709651,38.4709185 C16.0095612,38.4709185 16.7719212,37.9279822 17.1531013,37.1523588 C17.5342813,36.3767355 17.3055733,35.4459874 16.6956852,34.8254887 L14.4848411,32.4986187 C17.0768653,29.4736876 25.6915339,19.0803346 25.6915339,13.1080347 C25.6915339,5.97229985 19.9738335,0.155124671 12.960121,0.155124671 C5.94640844,0.155124671 0.228708017,5.97229985 0.228708017,13.1080347 C0.228708017,19.0803346 8.84337666,29.5512499 11.4354009,32.4986187 L9.4532647,34.7479264 C8.84337666,35.3684251 8.76714065,36.2991731 9.07208467,37.0747965 C9.3770287,37.8504198 10.1393888,38.3933562 11.0542208,38.3933562 L11.8928169,38.3933562 L11.8928169,39.6343536 C11.8928169,40.3324146 11.3591648,40.8753509 10.6730408,40.8753509 L9.75820873,40.8753509 C7.85230858,40.8753509 6.25135246,42.50416 6.25135246,44.4432184 C6.25135246,46.3822768 7.85230858,48.0110858 9.75820873,48.0110858 L15.5521452,48.0110858 C16.2382692,48.0110858 16.7719212,48.5540222 16.7719212,49.3296455 C16.7719212,50.0277066 16.2382692,50.5706429 15.5521452,50.5706429 L9.75820873,50.5706429 C8.84337666,50.5706429 7.92854459,50.9584546 7.24242054,51.6565156 C6.55629649,52.3545766 6.17511646,53.2077623 6.25135246,54.2160727 C6.25135246,56.2326934 7.85230858,57.8615025 9.75820873,57.8615025 L15.5521452,57.8615025 C16.2382692,57.8615025 16.7719212,58.4044388 16.7719212,59.1024998 C16.7719212,59.6522681 16.5503414,60.0732164 16.2091671,60.3030889 C14.9444423,61.1555556 16.3504036,63.2248241 17.8681851,61.9147798 C18.5945611,61.256417 19.0590014,60.3020227 19.0590014,59.2576245 C18.9827654,57.2410038 17.4580453,55.6121947 15.4759092,55.6121947 Z M12.960121,2.48199474 C18.7540574,2.48199474 23.4044537,7.29085956 23.4044537,13.1080347 C23.4044537,17.6842125 16.4669772,26.6814435 12.960121,30.7922473 C9.3770287,26.6814435 2.51578819,17.6842125 2.51578819,13.1080347 C2.51578819,7.21329722 7.16618453,2.48199474 12.960121,2.48199474 Z M12.960121,34.2049901 L12.960121,34.2049901 L12.960121,34.2049901 L14.7897851,36.0664861 L11.3591648,36.0664861 L12.960121,34.2049901 Z" id="Shape" fill="url(#linearGradient-1)"></path>
                </g>
                <path d="M11.1200323,79.9259356 C13.4036104,79.9259356 16.1836184,79.2291995 18.1362432,78.0679726 C18.4671965,77.8025494 18.5664825,77.3048807 18.4010058,76.9399237 L17.0440971,74.5179363 C16.7793345,73.9870897 16.2829044,73.9870897 15.8526651,74.1529793 C14.4295657,74.9160712 13.072657,75.2478503 11.980511,75.2478503 C8.27383356,75.2478503 5.12977681,72.8258629 5.12977681,68.3136672 C5.12977681,64.1664285 8.27383356,61.6449074 11.5502716,61.6449074 C13.171943,61.6449074 14.5950424,62.0762202 15.8526651,62.6734226 C16.2829044,62.9056679 16.7793345,62.9056679 17.0440971,62.4079993 L18.4010058,59.8533002 C18.6326732,59.4551653 18.5664825,59.0238525 18.1362432,58.7584292 C16.2829044,57.7630919 13.668373,57 11.1200323,57 C4.63334679,57 0,62.0762202 0,68.3136672 C0,74.5842921 4.63334679,79.9259356 11.1200323,79.9259356 Z M21.2499625,79.4946228 L24.4602099,79.4946228 C24.9566399,79.4946228 25.2875933,79.1628437 25.2875933,78.6319971 L25.2875933,69.6407836 C26.3135486,68.2804893 27.4056947,67.7496427 28.7626034,67.7496427 C30.4173701,67.7496427 31.6088021,69.0104033 31.6088021,71.5319244 L31.6088021,78.6319971 C31.6088021,79.1628437 31.9397555,79.4946228 32.4361855,79.4946228 L35.7457189,79.4946228 C36.1428629,79.4946228 36.5731023,79.0633099 36.5731023,78.6319971 L36.5731023,71.697814 C36.5731023,66.6215938 33.7930942,63.5028703 29.5237961,63.5028703 C27.9021247,63.5028703 26.4790253,64.0005389 25.2875933,65.09541 L25.2875933,58.4266501 C25.2875933,57.9289815 24.9566399,57.5972024 24.4602099,57.5972024 L21.2499625,57.5972024 C20.7535325,57.5972024 20.4225792,57.9289815 20.4225792,58.4266501 L20.4225792,78.6319971 C20.4225792,79.1628437 20.7535325,79.4946228 21.2499625,79.4946228 Z M45.4454098,79.8264019 C42.003495,79.8264019 38.4622942,77.0394574 38.4622942,71.8637035 C38.4622942,66.555238 42.3344483,63.5028703 47.2325578,63.5028703 C49.7478032,63.5028703 52.0313813,64.3986739 53.289004,65.1285879 C54.1494827,65.6262565 54.480436,66.2234589 54.480436,67.3183299 L54.480436,78.6319971 C54.480436,79.1628437 54.1494827,79.4946228 53.6530527,79.4946228 L50.9061399,79.4946228 C50.4097099,79.4946228 50.0456612,79.1628437 50.0456612,78.6319971 L50.0456612,77.5371261 C49.2844685,78.8310646 47.5635112,79.8264019 45.4454098,79.8264019 Z M46.6037465,75.6128073 C49.2844685,75.6128073 50.4759006,72.7595071 49.8801846,68.6786242 C49.2182779,68.2473114 48.2585132,67.8491765 46.9346998,67.8491765 C45.0813611,67.8491765 43.3273084,69.4085382 43.3273084,71.9300593 C43.3273084,74.2193351 44.9158844,75.6128073 46.6037465,75.6128073 Z" id="Cha" fill="#8142F9"></path>
                <path d="M69.9169249,80.5563159 C65.7800081,80.5563159 63,76.8072121 63,72.427728 C63,66.7543054 66.5412008,64.2327843 70.0162109,64.2327843 C71.7040729,64.2327843 73.3588396,64.730453 74.484081,65.3276553 L74.484081,57.8294477 C74.484081,57.3317791 74.8150343,57 75.3114643,57 L78.5217118,57 C79.0181418,57 79.3490951,57.3317791 79.3490951,57.8294477 L79.3490951,79.3619111 C79.3490951,79.8927577 79.0181418,80.2245368 78.5217118,80.2245368 L75.6424177,80.2245368 C75.1459877,80.2245368 74.8150343,79.8927577 74.8150343,79.3619111 L74.8150343,78.1011505 C73.6566976,79.8927577 71.5385962,80.5563159 69.9169249,80.5563159 Z M70.7774035,76.3427213 C73.789079,76.3427213 75.3114643,73.2903536 74.484081,69.5080719 C73.6236023,68.8776917 72.1012169,68.5790905 71.1083569,68.5790905 C69.2550182,68.5790905 67.7326328,69.9725627 67.7326328,72.5272617 C67.7326328,74.8165375 69.0895415,76.3427213 70.7774035,76.3427213 Z M94.2778488,76.1768318 L95.2045181,78.3665738 C95.3038041,78.5988192 95.3038041,79.030132 94.9728508,79.1960216 C93.4835608,79.9591135 91.530936,80.5563159 89.545216,80.5563159 C84.3492485,80.5563159 81.2382871,77.3048807 81.2382871,72.6599734 C81.2382871,67.8823544 84.1506765,64.1996064 89.545216,64.1996064 C93.4835608,64.1996064 95.9657108,66.6547717 95.9657108,69.4417161 C95.9657108,73.1244641 93.1857028,74.7170038 89.644502,74.7170038 C88.353784,74.7170038 86.9968752,74.3520468 85.8385386,73.7880223 C86.3680639,75.3142061 87.8904493,76.5086109 89.9754553,76.5086109 C91.2992687,76.5086109 92.0273661,76.3095434 93.4504654,75.745519 C93.8476094,75.5796294 94.1123721,75.745519 94.2778488,76.1768318 Z M89.7106927,68.2473114 C88.2875933,68.2473114 86.5004452,69.0435812 85.9047292,71.0674337 C86.8644939,71.4655686 87.8573539,71.697814 89.148072,71.697814 C90.7697434,71.697814 91.828794,70.9679 91.828794,69.9725627 C91.828794,69.2094708 91.1668874,68.2473114 89.7106927,68.2473114 Z" id="de" fill="#8142F9"></path>
                <path d="M44.0046578,58.5021567 L44.2088516,60.8419253 C44.240428,61.2037452 44.4131474,61.4316561 44.6558172,61.4103723 L54.4991083,60.5470472 C54.7266112,60.5270936 54.8572289,60.272578 54.8256525,59.9107581 L54.6214588,57.5709894 C54.5898824,57.2091696 54.4171629,56.9812587 54.1896601,57.0012123 L44.3463689,57.8645374 C44.1036992,57.8858212 43.9730815,58.1403368 44.0046578,58.5021567 Z" id="l" fill="#8142F9"></path>
            </g>
        </g>
    </g>
</svg>