<?xml version="1.0" encoding="UTF-8"?>
<svg width="222px" height="54px" viewBox="0 0 222 54" version="1.1" xmlns="http://www.w3.org/2000/svg" xmlns:xlink="http://www.w3.org/1999/xlink">
    <!-- Generator: Sketch 45 (43475) - http://www.bohemiancoding.com/sketch -->
    <title>Group 3</title>
    <desc>Created with Sketch.</desc>
    <defs>
        <linearGradient x1="-14.6814432%" y1="-6.02992421%" x2="69.1780047%" y2="40.429258%" id="linearGradient-1">
            <stop stop-color="#31D1F8" offset="0%"></stop>
            <stop stop-color="#8142F9" offset="100%"></stop>
        </linearGradient>
        <linearGradient x1="-18.8597987%" y1="-29.8606844%" x2="94.6834797%" y2="100%" id="linearGradient-2">
            <stop stop-color="#44C0FD" offset="0%"></stop>
            <stop stop-color="#8142F9" offset="100%"></stop>
        </linearGradient>
    </defs>
    <g id="Page-1" stroke="none" stroke-width="1" fill="none" fill-rule="evenodd">
        <g id="Artboard" transform="translate(-111.000000, -104.000000)">
            <g id="Group-3" transform="translate(111.000000, 104.000000)">
                <path d="M96.8294477,53.2245368 C96.3317791,53.2245368 96,52.8927577 96,52.3619111 L96,32.1565641 C96,31.6588955 96.3317791,31.3271164 96.8294477,31.3271164 L106.749643,31.3271164 C112.655311,31.3271164 115.707678,35.1093981 115.707678,39.0243914 C115.707678,43.9679 112.323532,47.0202677 104.792146,47.0202677 C103.664097,47.0202677 102.436514,46.9539118 101.142576,46.8212002 L101.142576,52.3619111 C101.142576,52.8927577 100.810797,53.2245368 100.313128,53.2245368 L96.8294477,53.2245368 Z M104.194944,42.474894 C108.873029,42.474894 110.631458,41.3468451 110.631458,39.0243914 C110.631458,37.4982076 109.370698,35.9720237 106.749643,35.9720237 L101.142576,35.9720237 L101.142576,42.3421824 C102.270625,42.4417161 103.29914,42.474894 104.194944,42.474894 Z M123.37454,53.5563159 C119.924038,53.5563159 116.374001,50.7693715 116.374001,45.5936175 C116.374001,40.285152 120.255817,37.2327843 125.166147,37.2327843 C127.687669,37.2327843 129.976944,38.1285879 131.237705,38.8585019 C132.100331,39.3561705 132.43211,39.9533729 132.43211,41.0482439 L132.43211,52.3619111 C132.43211,52.8927577 132.100331,53.2245368 131.602662,53.2245368 L128.848895,53.2245368 C128.351227,53.2245368 127.98627,52.8927577 127.98627,52.3619111 L127.98627,51.2670401 C127.223178,52.5609786 125.497927,53.5563159 123.37454,53.5563159 Z M124.535767,49.3427213 C127.223178,49.3427213 128.417583,46.4894211 127.82038,42.4085382 C127.156822,41.9772254 126.194663,41.5790905 124.867546,41.5790905 C123.009583,41.5790905 121.251154,43.1384522 121.251154,45.6599734 C121.251154,47.9492491 122.843694,49.3427213 124.535767,49.3427213 Z M135.619954,53.2245368 L138.838211,53.2245368 C139.33588,53.2245368 139.667659,52.8927577 139.667659,52.3619111 L139.667659,42.4085382 C140.364395,41.9772254 141.39291,41.5790905 142.421425,41.5790905 C144.113499,41.5790905 145.606505,43.3375197 145.606505,45.8590408 L145.606505,52.3619111 C145.606505,52.8927577 145.938284,53.2245368 146.46913,53.2245368 L149.687387,53.2245368 C150.185056,53.2245368 150.516835,52.8927577 150.516835,52.3619111 L150.516835,45.5936175 C150.516835,40.285152 146.767731,37.2327843 142.056468,37.2327843 C139.501769,37.2327843 137.212493,38.1617658 135.951733,38.9248577 C135.122285,39.4225263 134.790506,40.0197287 134.790506,41.1145997 L134.790506,52.3619111 C134.790506,52.8927577 135.122285,53.2245368 135.619954,53.2245368 Z M165.482837,49.1768318 L166.411819,51.3665738 C166.511352,51.5988192 166.511352,52.030132 166.179573,52.1960216 C164.686567,52.9591135 162.729071,53.5563159 160.738396,53.5563159 C155.529464,53.5563159 152.410741,50.3048807 152.410741,45.6599734 C152.410741,40.8823544 155.330397,37.1996064 160.738396,37.1996064 C164.686567,37.1996064 167.174911,39.6547717 167.174911,42.4417161 C167.174911,46.1244641 164.387966,47.7170038 160.83793,47.7170038 C159.543991,47.7170038 158.183697,47.3520468 157.02247,46.7880223 C157.553317,48.3142061 159.079501,49.5086109 161.169709,49.5086109 C162.496825,49.5086109 163.226739,49.3095434 164.65339,48.745519 C165.051524,48.5796294 165.316948,48.745519 165.482837,49.1768318 Z M160.904286,41.2473114 C159.477636,41.2473114 157.686028,42.0435812 157.088826,44.0674337 C158.050986,44.4655686 159.046323,44.697814 160.340261,44.697814 C161.965979,44.697814 163.027672,43.9679 163.027672,42.9725627 C163.027672,42.2094708 162.364114,41.2473114 160.904286,41.2473114 Z M169.898264,53.2245368 L173.116521,53.2245368 C173.61419,53.2245368 173.945969,52.8927577 173.945969,52.3619111 L173.945969,30.8294477 C173.945969,30.3317791 173.61419,30 173.116521,30 L169.898264,30 C169.400595,30 169.068816,30.3317791 169.068816,30.8294477 L169.068816,52.3619111 C169.068816,52.8927577 169.400595,53.2245368 169.898264,53.2245368 Z M182.840414,53.5563159 C179.389911,53.5563159 175.839875,50.7693715 175.839875,45.5936175 C175.839875,40.285152 179.72169,37.2327843 184.632021,37.2327843 C187.153542,37.2327843 189.442818,38.1285879 190.703578,38.8585019 C191.566204,39.3561705 191.897983,39.9533729 191.897983,41.0482439 L191.897983,52.3619111 C191.897983,52.8927577 191.566204,53.2245368 191.068535,53.2245368 L188.314769,53.2245368 C187.8171,53.2245368 187.452143,52.8927577 187.452143,52.3619111 L187.452143,51.2670401 C186.689051,52.5609786 184.9638,53.5563159 182.840414,53.5563159 Z M184.00164,49.3427213 C186.689051,49.3427213 187.883456,46.4894211 187.286254,42.4085382 C186.622695,41.9772254 185.660536,41.5790905 184.33342,41.5790905 C182.475457,41.5790905 180.717027,43.1384522 180.717027,45.6599734 C180.717027,47.9492491 182.309567,49.3427213 184.00164,49.3427213 Z" id="Panela" fill="#8142F9"></path>
                <g id="Group" transform="translate(190.000000, 0.000000)" fill-rule="nonzero">
                    <path d="M24.9065294,11.7119127 C24.3728774,10.3157907 23.1531013,9.30748029 21.7046172,9.15235562 C20.7135491,9.07479328 19.722481,9.30748029 18.960121,9.85041664 C18.1215249,9.30748029 17.1304568,9.07479328 16.1393888,9.15235562 C14.6909046,9.30748029 13.4711286,10.2382283 12.9374765,11.7119127 C12.4038245,13.1855971 12.7850045,14.7368438 13.8523086,15.8227165 L18.807649,20.7091436 L23.8392253,15.8227165 C25.0590014,14.8144061 25.4401814,13.1855971 24.9065294,11.7119127 Z M22.3907412,14.1939074 L18.960121,17.5290879 L15.6057367,14.1939074 C15.0720847,13.6509711 15.0720847,12.9529101 15.2245567,12.4875361 C15.3007927,12.254849 15.6057367,11.556788 16.4443328,11.4792257 C16.5205688,11.4792257 16.5968048,11.4792257 16.5968048,11.4792257 C17.2066928,11.4792257 17.7403449,11.7119127 18.1215249,12.1772867 L18.960121,13.1855971 L19.798717,12.254849 C20.2561331,11.789475 20.8660211,11.4792257 21.5521452,11.556788 C22.3907412,11.6343504 22.6956852,12.254849 22.7719212,12.5650984 C22.9243933,12.9529101 22.9243933,13.6509711 22.3907412,14.1939074 Z" id="Shape" fill="#F950B7"></path>
                    <path d="M0.856905914,53.215912 L21.5521452,53.215912 C23.4580453,53.215912 25.0590014,51.3462663 25.0590014,49.3296455 C25.0590014,47.3905871 23.4580453,45.7617781 21.5521452,45.7617781 L15.7582087,45.7617781 C15.0720847,45.7617781 14.5384326,45.2188417 14.5384326,44.5207807 C14.5384326,43.8227197 15.0720847,43.2797833 15.7582087,43.2797833 L16.6730408,43.2797833 C18.5789409,43.2797833 20.1798971,41.6509743 20.1798971,39.7119159 L20.1798971,38.4709185 L21.1709651,38.4709185 C22.0095612,38.4709185 22.7719212,37.9279822 23.1531013,37.1523588 C23.5342813,36.3767355 23.3055733,35.4459874 22.6956852,34.8254887 L20.4848411,32.4986187 C23.0768653,29.4736876 31.6915339,19.0803346 31.6915339,13.1080347 C31.6915339,5.97229985 25.9738335,0.155124671 18.960121,0.155124671 C11.9464084,0.155124671 6.22870802,5.97229985 6.22870802,13.1080347 C6.22870802,19.0803346 14.8433767,29.5512499 17.4354009,32.4986187 L15.4532647,34.7479264 C14.8433767,35.3684251 14.7671407,36.2991731 15.0720847,37.0747965 C15.3770287,37.8504198 16.1393888,38.3933562 17.0542208,38.3933562 L17.8928169,38.3933562 L17.8928169,39.6343536 C17.8928169,40.3324146 17.3591648,40.8753509 16.6730408,40.8753509 L15.7582087,40.8753509 C13.8523086,40.8753509 12.2513525,42.50416 12.2513525,44.4432184 C12.2513525,46.3822768 13.8523086,48.0110858 15.7582087,48.0110858 L21.5521452,48.0110858 C22.2382692,48.0110858 22.7719212,48.5540222 22.7719212,49.3296455 C22.7719212,50.0277066 22.2382692,50.8114796 21.5521452,50.8114796 L0.856905914,50.8114796 C-0.0579261536,50.8114796 0.475725886,53.215912 0.856905914,53.215912 Z M18.960121,2.48199474 C24.7540574,2.48199474 29.4044537,7.29085956 29.4044537,13.1080347 C29.4044537,17.6842125 22.4669772,26.6814435 18.960121,30.7922473 C15.3770287,26.6814435 8.51578819,17.6842125 8.51578819,13.1080347 C8.51578819,7.21329722 13.1661845,2.48199474 18.960121,2.48199474 Z M18.960121,34.2049901 L18.960121,34.2049901 L18.960121,34.2049901 L20.7897851,36.0664861 L17.3591648,36.0664861 L18.960121,34.2049901 Z" id="Shape" fill="url(#linearGradient-1)"></path>
                </g>
                <path d="M11.6053071,52.9259356 C13.8888852,52.9259356 16.6688933,52.2291995 18.621518,51.0679726 C18.9524713,50.8025494 19.0517573,50.3048807 18.8862807,49.9399237 L17.529372,47.5179363 C17.2646093,46.9870897 16.7681793,46.9870897 16.3379399,47.1529793 C14.9148405,47.9160712 13.5579318,48.2478503 12.4657858,48.2478503 C8.75910838,48.2478503 5.61505163,45.8258629 5.61505163,41.3136672 C5.61505163,37.1664285 8.75910838,34.6449074 12.0355465,34.6449074 C13.6572178,34.6449074 15.0803172,35.0762202 16.3379399,35.6734226 C16.7681793,35.9056679 17.2646093,35.9056679 17.529372,35.4079993 L18.8862807,32.8533002 C19.117948,32.4551653 19.0517573,32.0238525 18.621518,31.7584292 C16.7681793,30.7630919 14.1536479,30 11.6053071,30 C5.11862161,30 0.485274818,35.0762202 0.485274818,41.3136672 C0.485274818,47.5842921 5.11862161,52.9259356 11.6053071,52.9259356 Z M21.7352373,52.4946228 L24.9454847,52.4946228 C25.4419148,52.4946228 25.7728681,52.1628437 25.7728681,51.6319971 L25.7728681,42.6407836 C26.7988235,41.2804893 27.8909695,40.7496427 29.2478782,40.7496427 C30.9026449,40.7496427 32.0940769,42.0104033 32.0940769,44.5319244 L32.0940769,51.6319971 C32.0940769,52.1628437 32.4250303,52.4946228 32.9214603,52.4946228 L36.2309937,52.4946228 C36.6281377,52.4946228 37.0583771,52.0633099 37.0583771,51.6319971 L37.0583771,44.697814 C37.0583771,39.6215938 34.278369,36.5028703 30.0090709,36.5028703 C28.3873995,36.5028703 26.9643001,37.0005389 25.7728681,38.09541 L25.7728681,31.4266501 C25.7728681,30.9289815 25.4419148,30.5972024 24.9454847,30.5972024 L21.7352373,30.5972024 C21.2388073,30.5972024 20.907854,30.9289815 20.907854,31.4266501 L20.907854,51.6319971 C20.907854,52.1628437 21.2388073,52.4946228 21.7352373,52.4946228 Z M45.9306846,52.8264019 C42.4887698,52.8264019 38.9475691,50.0394574 38.9475691,44.8637035 C38.9475691,39.555238 42.8197232,36.5028703 47.7178326,36.5028703 C50.233078,36.5028703 52.5166561,37.3986739 53.7742788,38.1285879 C54.6347575,38.6262565 54.9657108,39.2234589 54.9657108,40.3183299 L54.9657108,51.6319971 C54.9657108,52.1628437 54.6347575,52.4946228 54.1383275,52.4946228 L51.3914147,52.4946228 C50.8949847,52.4946228 50.530936,52.1628437 50.530936,51.6319971 L50.530936,50.5371261 C49.7697434,51.8310646 48.048786,52.8264019 45.9306846,52.8264019 Z M47.0890213,48.6128073 C49.7697434,48.6128073 50.9611754,45.7595071 50.3654594,41.6786242 C49.7035527,41.2473114 48.743788,40.8491765 47.4199746,40.8491765 C45.5666359,40.8491765 43.8125832,42.4085382 43.8125832,44.9300593 C43.8125832,47.2193351 45.4011592,48.6128073 47.0890213,48.6128073 Z" id="Cha" fill="#8142F9"></path>
                <path d="M65.9169249,53.5563159 C61.7800081,53.5563159 59,49.8072121 59,45.427728 C59,39.7543054 62.5412008,37.2327843 66.0162109,37.2327843 C67.7040729,37.2327843 69.3588396,37.730453 70.484081,38.3276553 L70.484081,30.8294477 C70.484081,30.3317791 70.8150343,30 71.3114643,30 L74.5217118,30 C75.0181418,30 75.3490951,30.3317791 75.3490951,30.8294477 L75.3490951,52.3619111 C75.3490951,52.8927577 75.0181418,53.2245368 74.5217118,53.2245368 L71.6424177,53.2245368 C71.1459877,53.2245368 70.8150343,52.8927577 70.8150343,52.3619111 L70.8150343,51.1011505 C69.6566976,52.8927577 67.5385962,53.5563159 65.9169249,53.5563159 Z M66.7774035,49.3427213 C69.789079,49.3427213 71.3114643,46.2903536 70.484081,42.5080719 C69.6236023,41.8776917 68.1012169,41.5790905 67.1083569,41.5790905 C65.2550182,41.5790905 63.7326328,42.9725627 63.7326328,45.5272617 C63.7326328,47.8165375 65.0895415,49.3427213 66.7774035,49.3427213 Z M90.2778488,49.1768318 L91.2045181,51.3665738 C91.3038041,51.5988192 91.3038041,52.030132 90.9728508,52.1960216 C89.4835608,52.9591135 87.530936,53.5563159 85.545216,53.5563159 C80.3492485,53.5563159 77.2382871,50.3048807 77.2382871,45.6599734 C77.2382871,40.8823544 80.1506765,37.1996064 85.545216,37.1996064 C89.4835608,37.1996064 91.9657108,39.6547717 91.9657108,42.4417161 C91.9657108,46.1244641 89.1857028,47.7170038 85.644502,47.7170038 C84.353784,47.7170038 82.9968752,47.3520468 81.8385386,46.7880223 C82.3680639,48.3142061 83.8904493,49.5086109 85.9754553,49.5086109 C87.2992687,49.5086109 88.0273661,49.3095434 89.4504654,48.745519 C89.8476094,48.5796294 90.1123721,48.745519 90.2778488,49.1768318 Z M85.7106927,41.2473114 C84.2875933,41.2473114 82.5004452,42.0435812 81.9047292,44.0674337 C82.8644939,44.4655686 83.8573539,44.697814 85.148072,44.697814 C86.7697434,44.697814 87.828794,43.9679 87.828794,42.9725627 C87.828794,42.2094708 87.1668874,41.2473114 85.7106927,41.2473114 Z" id="de" fill="url(#linearGradient-2)"></path>
                <path d="M43.4889921,30.738207 L43.6519526,33.4456491 C43.6771527,33.8643257 43.8149946,34.1280507 44.0086615,34.1034224 L51.8642775,33.1044335 C52.0458403,33.0813444 52.1500821,32.786834 52.124882,32.3681573 L51.9619215,29.6607153 C51.9367214,29.2420387 51.7988795,28.9783137 51.6173168,29.0014028 L43.7617008,30.0003916 C43.5680338,30.02502 43.463792,30.3195304 43.4889921,30.738207 Z" id="l" fill="#8142F9"></path>
            </g>
        </g>
    </g>
</svg>